# Blender v2.80 (sub 75) OBJ File: ''
# www.blender.org
o Empty_Land_002
v -70.000000 -0.000011 70.000000
v 70.000000 -0.000011 70.000000
v 70.000000 0.000011 -70.000000
v -70.000000 0.000011 -70.000000
v 47.178600 4.451793 41.516899
v 47.784000 5.379793 45.201698
v 53.045700 3.047793 42.237598
v 48.228802 4.572494 38.557598
v 43.781898 5.379793 40.346802
v 44.364300 2.955393 43.664001
v 44.764000 0.000192 46.324200
v 51.004398 0.000193 45.298901
v 51.957600 0.000194 39.047100
v 46.306400 0.000194 36.208500
v 41.860500 0.000193 40.706001
v -40.015800 10.768707 -47.256699
v -34.836601 7.461708 -47.256699
v -37.710098 4.227409 -55.124599
v -46.052299 7.461709 -51.642399
v -42.381100 7.461707 -42.870899
v -37.710098 7.461707 -42.922100
v -33.979401 0.000307 -42.870899
v -33.979401 0.000308 -51.642399
v -42.321499 0.000309 -54.352901
v -47.477299 0.000308 -47.256699
v -42.321499 0.000307 -40.160400
v 29.505199 5.270306 -38.400501
v 25.733801 3.044807 -42.565701
v 25.142300 4.586206 -34.599602
v 28.052700 5.908405 -32.063801
v 34.754501 5.041707 -39.691898
v 31.312099 3.703107 -43.411098
v 28.636700 0.000308 -46.448601
v 21.582600 0.000307 -40.061501
v 24.079100 0.000305 -29.482700
v 36.553799 0.000305 -31.208900
v 36.890999 0.000307 -41.713600
v -55.441299 5.367703 -20.640200
v -52.859699 3.719303 -20.640200
v -54.292000 2.107204 -24.562000
v -58.450199 3.719304 -22.826200
v -56.620300 3.719303 -18.454100
v -54.292000 3.719303 -18.479601
v -52.432400 0.000103 -18.454100
v -52.432400 0.000104 -22.826200
v -56.590599 0.000104 -24.177299
v -59.160500 0.000103 -20.640200
v -56.590599 0.000103 -17.103001
v -53.019798 2.044407 -42.264500
v -51.791000 2.470607 -41.068298
v -50.655602 1.399707 -43.598598
v -53.438999 1.110507 -43.644299
v -54.593899 0.729607 -41.770302
v -53.473900 2.202607 -40.703602
v -52.600601 0.000106 -39.829800
v -50.574699 0.000107 -41.910801
v -51.927898 0.000107 -44.480598
v -54.790001 0.000107 -43.987801
v -55.205799 0.000107 -41.113499
v -58.704399 1.288207 -44.656898
v -58.120602 0.000107 -44.316799
v -57.476299 0.000107 -44.939201
v -58.340000 0.935708 -46.067501
v -57.670898 0.000108 -46.657101
v -59.584301 0.000108 -46.327702
v -59.862202 0.000107 -44.406101
v -34.862499 1.658605 -30.826799
v -32.940498 1.582605 -30.330900
v -34.608799 0.896605 -32.547001
v -35.943600 1.345105 -31.326200
v -35.230801 1.582605 -29.836201
v -34.251202 0.869405 -29.983801
v -32.418098 0.000105 -29.268801
v -33.322300 0.000105 -32.441200
v -35.554901 0.000105 -32.249802
v -35.990898 0.000105 -30.267200
v -35.138901 0.000105 -29.268600
v -47.611401 1.495105 -30.930300
v -47.295399 0.863705 -32.492599
v -49.213799 1.301005 -31.286600
v -49.302799 1.676105 -30.195200
v -46.432899 1.430205 -29.949200
v -46.163200 1.050505 -31.361300
v -45.920101 0.000105 -32.483501
v -48.566002 0.000105 -33.018799
v -50.561001 0.000105 -30.667900
v -48.066799 0.000105 -28.110300
v -45.611599 0.000105 -29.801701
vt 0.344300 0.650800
vt 0.027600 0.967500
vt 0.027600 0.650800
vt 0.467000 0.152300
vt 0.436200 0.142000
vt 0.470400 0.088900
vt 0.506500 0.148600
vt 0.474500 0.179500
vt 0.428600 0.179800
vt 0.336700 0.164400
vt 0.407600 0.063600
vt 0.531900 0.065500
vt 0.600000 0.181900
vt 0.479100 0.261000
vt 0.774300 0.258400
vt 0.760600 0.208900
vt 0.848900 0.189800
vt 0.827700 0.296700
vt 0.743000 0.298900
vt 0.735200 0.251300
vt 0.632400 0.172300
vt 0.797300 0.049900
vt 0.943700 0.260800
vt 0.838700 0.446400
vt 0.650400 0.364100
vt 0.598400 0.529400
vt 0.664700 0.475700
vt 0.640900 0.592100
vt 0.603100 0.606300
vt 0.536900 0.504800
vt 0.582300 0.455800
vt 0.633600 0.374400
vt 0.749400 0.527300
vt 0.648400 0.703600
vt 0.469000 0.620500
vt 0.474500 0.455500
vt 0.361100 0.409400
vt 0.328600 0.413200
vt 0.325200 0.355800
vt 0.390400 0.379500
vt 0.383600 0.433000
vt 0.352900 0.433300
vt 0.293200 0.490400
vt 0.232200 0.374800
vt 0.379000 0.303100
vt 0.485600 0.387100
vt 0.415600 0.497600
vt 0.851900 0.601900
vt 0.842300 0.618000
vt 0.813300 0.601400
vt 0.849800 0.576600
vt 0.891600 0.602700
vt 0.860000 0.617900
vt 0.856200 0.666100
vt 0.792400 0.633900
vt 0.805800 0.569800
vt 0.877100 0.545700
vt 0.924800 0.621300
vt 0.564400 0.327900
vt 0.558700 0.348600
vt 0.532900 0.334000
vt 0.554800 0.310200
vt 0.536700 0.296400
vt 0.578900 0.294100
vt 0.595400 0.331100
vt 0.267500 0.122200
vt 0.245600 0.133800
vt 0.257000 0.091400
vt 0.279500 0.108900
vt 0.277000 0.133600
vt 0.264800 0.145200
vt 0.225100 0.159100
vt 0.227200 0.092000
vt 0.280000 0.069700
vt 0.310700 0.124700
vt 0.292500 0.167600
vt 0.269500 0.254400
vt 0.253900 0.227700
vt 0.294300 0.242600
vt 0.297300 0.256900
vt 0.257300 0.275100
vt 0.242300 0.256100
vt 0.215900 0.233300
vt 0.277000 0.200200
vt 0.334600 0.246000
vt 0.295000 0.305700
vt 0.236200 0.294700
vt 0.344300 0.967500
vn 0.0000 1.0000 0.0000
vn 0.2556 0.9267 -0.2754
vn 0.2176 0.9690 0.1171
vn 0.2176 0.9690 0.1167
vn 0.2229 0.9676 0.1187
vn 0.2234 0.9675 0.1187
vn 0.0185 0.8088 0.5878
vn -0.5369 0.8348 -0.1220
vn 0.1611 0.1141 0.9803
vn 0.8804 -0.4549 0.1342
vn 0.4333 0.2610 -0.8626
vn -0.6964 0.2028 -0.6884
vn -0.8525 0.2813 0.4406
vn 0.5735 0.3567 0.7375
vn 0.6284 0.4441 -0.6386
vn -0.2356 0.5207 -0.8206
vn -0.8572 0.3324 0.3934
vn -0.6190 0.4776 0.6235
vn 0.4729 0.7407 -0.4772
vn 0.0358 0.7736 -0.6327
vn -0.5988 0.7607 0.2506
vn 0.0066 0.7967 0.6043
vn 0.5069 0.7938 0.3360
vn 0.9935 0.1141 0.0000
vn 0.2752 -0.4548 -0.8470
vn -0.7946 -0.1876 -0.5774
vn -0.7922 0.2028 0.5756
vn 0.3051 0.1590 0.9390
vn 0.8207 0.3566 -0.4463
vn -0.3193 0.1784 -0.9307
vn -0.8556 0.3739 0.3581
vn 0.0103 0.3415 0.9398
vn 0.7683 0.3877 0.5093
vn -0.3217 0.9248 -0.2028
vn -0.2884 0.9439 -0.1611
vn 0.0198 0.9952 -0.0957
vn -0.0348 0.9502 -0.3098
vn -0.1616 0.9238 -0.3472
vn -0.6419 0.2921 -0.7089
vn -0.8768 0.4341 0.2069
vn 0.1298 0.3224 0.9377
vn 0.9245 0.3799 0.0297
vn 0.4694 0.3321 -0.8182
vn -0.6527 0.7333 -0.1904
vn -0.6543 0.6256 0.4248
vn 0.5084 0.7833 0.3577
vn 0.5383 0.5001 -0.6783
vn -0.1870 0.7003 -0.6889
vn 0.2752 -0.4549 -0.8470
vn -0.7947 -0.1876 -0.5774
vn 0.0420 0.9267 -0.3734
vn -0.0780 0.8365 -0.5424
vn -0.6658 0.6969 -0.2667
vn -0.6658 0.6960 -0.2688
vn -0.6658 0.6977 -0.2644
vn -0.1877 0.9703 -0.1529
vn 0.7118 0.1141 0.6930
vn 0.7880 -0.4548 -0.4149
vn -0.1511 0.4553 -0.8775
vn -0.8103 0.5742 -0.1172
vn -0.4350 0.1777 0.8827
vn 0.8994 0.3567 0.2526
vn -0.0448 0.5614 -0.8263
vn -0.5899 0.7811 -0.2048
vn -0.7821 0.6220 -0.0378
vn 0.1304 0.4099 0.9028
vn 0.6202 0.4506 0.6421
vn 0.7829 0.6158 -0.0887
vn -0.1518 0.4470 -0.8816
vn -0.7497 0.6528 -0.1084
vn -0.0498 0.2338 0.9710
vn 0.7254 0.6882 0.0154
vn -0.5218 0.7861 -0.3312
vn 0.1353 0.9131 -0.3845
vn -0.0726 0.9079 -0.4129
vn -0.2675 0.9632 -0.0256
vn 0.5924 0.7561 0.2783
vn -0.1636 0.6582 0.7348
vn 0.9532 0.1323 -0.2717
vn -0.0831 -0.2335 -0.9688
vn -0.9679 -0.1336 -0.2129
vn -0.7476 0.1854 0.6378
vn 0.0001 0.6353 0.7723
vn 0.4987 0.6477 -0.5760
vn -0.5657 0.3494 -0.7469
vn -0.8736 0.3196 0.3670
vn 0.3726 0.3324 0.8664
vn -0.0714 0.5395 0.8390
vn -0.0277 0.9248 -0.3794
vn -0.0414 0.9438 -0.3278
vn 0.0888 0.9952 -0.0408
vn 0.2287 0.9502 -0.2118
vn 0.1835 0.9237 -0.3362
vn 0.1896 0.2921 -0.9374
vn -0.6869 0.4341 -0.5829
vn -0.6777 0.3224 0.6609
vn 0.5248 0.3799 0.7617
vn 0.9371 0.3320 -0.1078
vn -0.2341 0.7333 -0.6383
vn -0.7302 0.6256 -0.2746
vn 0.0138 0.7833 0.6215
vn 0.8654 0.5002 0.0308
vn 0.4434 0.7003 -0.5594
s 1
f 2/1/1 4/2/1 1/3/1
f 5/4/2 6/5/2 7/6/2
f 5/4/3 7/6/4 8/7/5
f 5/4/3 8/7/5 9/8/6
f 5/4/7 9/8/7 10/9/7
f 5/4/8 10/9/8 6/5/8
f 6/5/9 11/10/9 12/11/9
f 7/6/10 12/11/10 13/12/10
f 8/7/11 13/12/11 14/13/11
f 9/8/12 14/13/12 15/14/12
f 10/9/13 15/14/13 11/10/13
f 12/11/14 7/6/14 6/5/14
f 13/12/15 8/7/15 7/6/15
f 14/13/16 9/8/16 8/7/16
f 15/14/17 10/9/17 9/8/17
f 11/10/18 6/5/18 10/9/18
f 16/15/19 17/16/19 18/17/19
f 16/15/20 18/17/20 19/18/20
f 16/15/21 19/18/21 20/19/21
f 16/15/22 20/19/22 21/20/22
f 16/15/23 21/20/23 17/16/23
f 17/16/24 22/21/24 23/22/24
f 18/17/25 23/22/25 24/23/25
f 19/18/26 24/23/26 25/24/26
f 20/19/27 25/24/27 26/25/27
f 21/20/28 26/25/28 22/21/28
f 23/22/29 18/17/29 17/16/29
f 24/23/30 19/18/30 18/17/30
f 25/24/31 20/19/31 19/18/31
f 26/25/32 21/20/32 20/19/32
f 22/21/33 17/16/33 21/20/33
f 27/26/34 28/27/34 29/28/34
f 27/26/35 29/28/35 30/29/35
f 27/26/36 30/29/36 31/30/36
f 27/26/37 31/30/37 32/31/37
f 27/26/38 32/31/38 28/27/38
f 28/27/39 33/32/39 34/33/39
f 29/28/40 34/33/40 35/34/40
f 30/29/41 35/34/41 36/35/41
f 31/30/42 36/35/42 37/36/42
f 32/31/43 37/36/43 33/32/43
f 34/33/44 29/28/44 28/27/44
f 35/34/45 30/29/45 29/28/45
f 36/35/46 31/30/46 30/29/46
f 37/36/47 32/31/47 31/30/47
f 33/32/48 28/27/48 32/31/48
f 38/37/19 39/38/19 40/39/19
f 38/37/20 40/39/20 41/40/20
f 38/37/21 41/40/21 42/41/21
f 38/37/22 42/41/22 43/42/22
f 38/37/23 43/42/23 39/38/23
f 39/38/24 44/43/24 45/44/24
f 40/39/49 45/44/49 46/45/49
f 41/40/50 46/45/50 47/46/50
f 42/41/27 47/46/27 48/47/27
f 43/42/28 48/47/28 44/43/28
f 45/44/29 40/39/29 39/38/29
f 46/45/30 41/40/30 40/39/30
f 47/46/31 42/41/31 41/40/31
f 48/47/32 43/42/32 42/41/32
f 44/43/33 39/38/33 43/42/33
f 49/48/51 50/49/51 51/50/51
f 49/48/52 51/50/52 52/51/52
f 49/48/53 52/51/54 53/52/53
f 49/48/53 53/52/53 54/53/55
f 49/48/56 54/53/56 50/49/56
f 50/49/57 55/54/57 56/55/57
f 51/50/58 56/55/58 57/56/58
f 52/51/59 57/56/59 58/57/59
f 53/52/60 58/57/60 59/58/60
f 54/53/61 59/58/61 55/54/61
f 56/55/62 51/50/62 50/49/62
f 57/56/63 52/51/63 51/50/63
f 58/57/64 53/52/64 52/51/64
f 59/58/65 54/53/65 53/52/65
f 55/54/66 50/49/66 54/53/66
f 60/59/67 61/60/67 62/61/67
f 63/62/68 62/61/68 64/63/68
f 63/62/69 64/63/69 65/64/69
f 60/59/70 65/64/70 66/65/70
f 60/59/71 66/65/71 61/60/71
f 62/61/72 63/62/72 60/59/72
f 65/64/73 60/59/73 63/62/73
f 67/66/74 68/67/74 69/68/74
f 67/66/75 69/68/75 70/69/75
f 67/66/76 70/69/76 71/70/76
f 67/66/77 71/70/77 72/71/77
f 67/66/78 72/71/78 68/67/78
f 68/67/79 73/72/79 74/73/79
f 69/68/80 74/73/80 75/74/80
f 70/69/81 75/74/81 76/75/81
f 71/70/82 76/75/82 77/76/82
f 72/71/83 77/76/83 73/72/83
f 74/73/84 69/68/84 68/67/84
f 75/74/85 70/69/85 69/68/85
f 76/75/86 71/70/86 70/69/86
f 77/76/87 72/71/87 71/70/87
f 73/72/88 68/67/88 72/71/88
f 78/77/89 79/78/89 80/79/89
f 78/77/90 80/79/90 81/80/90
f 78/77/91 81/80/91 82/81/91
f 78/77/92 82/81/92 83/82/92
f 78/77/93 83/82/93 79/78/93
f 79/78/94 84/83/94 85/84/94
f 80/79/95 85/84/95 86/85/95
f 81/80/96 86/85/96 87/86/96
f 82/81/97 87/86/97 88/87/97
f 83/82/98 88/87/98 84/83/98
f 85/84/99 80/79/99 79/78/99
f 86/85/100 81/80/100 80/79/100
f 87/86/101 82/81/101 81/80/101
f 88/87/102 83/82/102 82/81/102
f 84/83/103 79/78/103 83/82/103
f 2/1/1 3/88/1 4/2/1
