# Blender v2.80 (sub 75) OBJ File: ''
# www.blender.org
o shore_stright02
v -55.669899 -27.637211 69.999992
v -35.000000 -7.837612 70.000000
v -35.000000 -7.837606 35.000000
v -55.669899 -27.637205 34.999996
v 0.000000 -0.000011 70.000000
v 0.000000 -0.000006 35.000000
v 70.000000 -0.000011 70.000000
v 70.000000 0.000011 -70.000000
v 0.000000 0.000011 -70.000000
v 0.000000 0.000000 0.000000
v 0.000000 0.000006 -35.000000
v -40.482601 -7.837600 -0.000001
v -61.152500 -27.637199 -0.000005
v -46.598400 -7.837595 -35.000000
v -67.268204 -27.637194 -35.000004
v -35.000000 -7.837589 -70.000000
v -55.669899 -27.637188 -70.000008
vt 0.259300 0.034500
vt 0.066000 0.265900
vt 0.068800 0.033500
vt 0.498100 0.033700
vt 0.258100 0.266300
vt 0.968800 0.958400
vt 0.963900 0.032900
vt 0.497700 0.264000
vt 0.508000 0.958800
vt 0.501900 0.493900
vt 0.507600 0.725900
vt 0.228500 0.499000
vt 0.038100 0.500600
vt 0.198100 0.729400
vt 0.013400 0.737300
vt 0.083300 0.972400
vt 0.271700 0.959600
vn -0.4725 0.8813 0.0000
vn -0.6907 0.7210 0.0558
vn -0.6917 0.7221 0.0000
vn -0.1099 0.9939 0.0000
vn -0.4575 0.8887 0.0302
vn 0.0000 1.0000 0.0000
vn 0.6583 0.6081 0.4437
vn -0.1093 0.9940 0.0009
vn -0.6461 0.5217 -0.5572
vn 0.3600 0.4148 -0.8357
vn -0.4495 0.8901 0.0748
vn -0.6872 0.7174 0.1143
vn -0.4817 0.8756 -0.0366
vn -0.6910 0.7214 -0.0460
vn -0.6743 0.7039 -0.2234
vn -0.4231 0.8950 -0.1413
s 1
f 2/1/1 4/2/2 1/3/3
f 5/4/4 3/5/5 2/1/1
f 8/6/6 5/4/4 7/7/6
f 6/8/7 9/9/8 10/10/9
f 9/9/8 11/11/10 10/10/9
f 4/2/2 12/12/11 13/13/12
f 3/5/5 10/10/9 12/12/11
f 13/13/12 14/14/13 15/15/14
f 12/12/11 11/11/10 14/14/13
f 14/14/13 17/16/15 15/15/14
f 11/11/10 16/17/16 14/14/13
f 2/1/1 3/5/5 4/2/2
f 5/4/4 6/8/7 3/5/5
f 8/6/6 9/9/8 5/4/4
f 6/8/7 5/4/4 9/9/8
f 4/2/2 3/5/5 12/12/11
f 3/5/5 6/8/7 10/10/9
f 13/13/12 12/12/11 14/14/13
f 12/12/11 10/10/9 11/11/10
f 14/14/13 16/17/16 17/16/15
f 11/11/10 9/9/8 16/17/16
