# Blender v2.80 (sub 75) OBJ File: ''
# www.blender.org
o Sea_Side_angle_002
v -55.669899 -27.637211 69.999992
v -35.000000 -7.837612 70.000000
v -38.564602 -7.837606 35.000000
v -65.677803 -27.637205 34.999996
v 0.000000 -0.000011 70.000000
v 0.000000 -0.000006 35.000000
v 70.000000 -27.637190 -55.669804
v 35.000000 -27.637192 -48.730003
v 35.000000 -7.837595 -29.026503
v 70.000000 -7.837595 -35.000000
v 35.000000 0.000000 0.000000
v 70.000000 0.000000 0.000000
v 35.000000 -0.000006 35.000000
v 35.000000 -0.000011 70.000000
v 70.000000 -0.000011 70.000000
v 70.000000 -0.000006 35.000000
v -31.482700 -7.837601 7.070498
v -49.033001 -27.637196 -17.717703
v 0.000000 -0.000003 15.695100
v -7.430400 -27.637196 -28.963203
v 4.150300 -7.837599 -9.961201
v 58.503899 2.200897 21.927799
v 57.624199 1.900197 18.645000
v 56.652599 1.552997 20.959000
v 56.862999 2.872796 23.289200
v 62.062302 1.900196 22.378500
v 60.491798 0.775797 18.320999
v 60.689999 -0.000103 16.232700
v 55.082298 -0.000103 18.088699
v 54.792999 -0.000104 23.361000
v 59.984798 -0.000104 26.074200
v 63.287102 -0.000104 23.536501
v 46.853699 0.875196 22.402500
v 47.427200 1.127696 24.272600
v 48.906898 -0.000104 24.171301
v 47.599300 -0.000104 21.784300
v 45.335400 -0.000104 22.390900
v 45.672001 -0.000104 24.608299
v 47.368801 -0.000104 25.451799
v 26.555901 2.820591 53.673199
v 25.351900 2.107991 56.809898
v 29.999599 -0.000109 54.575401
v 27.806299 -0.000108 50.571701
v 24.009300 -0.000108 51.589100
v 24.573900 -0.000109 55.308399
v 27.419800 -0.000109 56.723099
v 55.642300 4.522192 46.797798
v 58.097000 2.872793 44.447300
v 55.601002 2.872793 44.708698
v 51.105400 2.872792 47.415699
v 54.827999 2.872792 49.730099
v 58.601299 2.872792 48.167702
v 60.259800 -0.000107 45.974499
v 56.727100 -0.000107 43.105000
v 51.274399 -0.000107 44.961800
v 51.509499 -0.000108 50.754902
v 57.208599 -0.000109 52.995998
v 40.087101 1.334392 52.165298
v 37.546101 2.107991 54.712200
v 40.375198 -0.000109 56.651402
v 41.756500 -0.000109 52.300301
v 38.398602 -0.000108 50.256500
v 36.098301 -0.000109 53.233101
v 37.040199 -0.000109 56.268398
v 34.820702 0.660994 35.708000
v 35.394199 0.739194 36.903999
v 36.873901 -0.000106 36.802700
v 35.566200 -0.000106 34.415699
v 33.302399 -0.000106 35.022301
v 33.639000 -0.000106 37.239799
v 35.335800 -0.000106 38.083199
vt 0.953300 0.285300
vt 0.781400 0.417800
vt 0.772500 0.251200
vt 0.955700 0.430400
vt 0.782700 0.611100
vt 0.320900 0.749700
vt 0.415900 0.943300
vt 0.272400 0.923700
vt 0.457800 0.771900
vt 0.596800 0.954300
vt 0.955100 0.788600
vt 0.773600 0.961000
vt 0.779100 0.785200
vt 0.957500 0.611600
vt 0.605400 0.779500
vt 0.647600 0.453500
vt 0.510600 0.339900
vt 0.688200 0.610000
vt 0.430200 0.541000
vt 0.554900 0.621900
vt 0.097800 0.119200
vt 0.099600 0.081000
vt 0.118800 0.104900
vt 0.113700 0.130100
vt 0.060800 0.137400
vt 0.060900 0.082300
vt 0.050500 0.052400
vt 0.136900 0.055500
vt 0.151500 0.135100
vt 0.090900 0.182200
vt 0.040500 0.158300
vt 0.082300 0.227400
vt 0.080200 0.248500
vt 0.059600 0.253600
vt 0.070000 0.217000
vt 0.102200 0.221300
vt 0.104100 0.251000
vt 0.083800 0.267300
vt 0.099400 0.353200
vt 0.111300 0.380800
vt 0.051600 0.366600
vt 0.074900 0.300900
vt 0.133100 0.316100
vt 0.135300 0.373000
vt 0.103800 0.406900
vt 0.270800 0.102100
vt 0.242400 0.082200
vt 0.266000 0.075900
vt 0.313900 0.099000
vt 0.286400 0.134100
vt 0.242300 0.122300
vt 0.194200 0.100200
vt 0.240300 0.032900
vt 0.328000 0.058600
vt 0.343000 0.142000
vt 0.267200 0.205100
vt 0.402900 0.106100
vt 0.434700 0.128000
vt 0.408600 0.165300
vt 0.376500 0.110900
vt 0.417800 0.070100
vt 0.456700 0.106100
vt 0.452300 0.148300
vt 0.173500 0.239000
vt 0.169800 0.253000
vt 0.150800 0.256500
vt 0.161000 0.223900
vt 0.190700 0.226400
vt 0.192300 0.254300
vt 0.173300 0.269000
vt 0.950500 0.965600
vn -0.6478 0.7539 0.1099
vn -0.4327 0.9015 -0.0021
vn -0.5700 0.8213 0.0235
vn -0.4838 0.8751 0.0152
vn -0.0988 0.9951 0.0104
vn -0.2057 0.6706 -0.7128
vn -0.0847 0.8667 -0.4915
vn -0.1344 0.7167 -0.6843
vn -0.1694 0.8458 -0.5060
vn -0.0001 0.9940 -0.1098
vn 0.0000 1.0000 0.0000
vn -0.1151 0.9933 -0.0053
vn -0.0500 0.9867 -0.1545
vn -0.3626 0.8932 -0.2661
vn -0.3732 0.8333 -0.4079
vn -0.1163 0.9846 -0.1305
vn -0.2601 0.7284 -0.6339
vn -0.2374 0.8696 -0.4329
vn -0.3314 0.9435 0.0024
vn -0.0490 0.8710 -0.4889
vn 0.1199 0.9400 -0.3194
vn 0.1187 0.9441 -0.3076
vn 0.3420 0.9230 -0.1762
vn -0.2576 0.5725 -0.7784
vn -0.6681 0.7432 -0.0367
vn -0.4364 0.3353 0.8350
vn 0.4584 0.6589 0.5965
vn 0.6206 0.7524 -0.2207
vn -0.5772 0.8076 -0.1212
vn -0.7891 0.5624 -0.2473
vn 0.2456 0.7990 0.5489
vn 0.8586 0.3002 -0.4155
vn 0.3179 0.8982 -0.3036
vn 0.5699 0.7728 -0.2791
vn 0.5940 0.7358 -0.3254
vn -0.2350 0.4192 -0.8770
vn -0.4985 0.8636 0.0757
vn -0.3212 0.6923 0.6462
vn -0.5332 0.8445 0.0495
vn 0.5068 0.6103 0.6088
vn 0.5265 0.7628 0.3754
vn 0.6464 0.6759 -0.3541
vn -0.1879 0.6877 -0.7012
vn -0.7789 0.6159 0.1182
vn -0.4023 -0.4280 0.8093
vn -0.8536 0.4720 -0.2204
vn 0.5496 0.5119 0.6602
vn -0.0647 0.7838 -0.6176
vn -0.3473 0.7393 -0.5768
vn -0.2597 0.8707 0.4177
vn 0.2168 0.8239 0.5236
vn 0.5099 0.8574 -0.0691
vn 0.6293 0.0619 -0.7747
vn -0.2991 0.3730 -0.8783
vn -0.9948 -0.0930 0.0404
vn -0.2921 0.6024 0.7428
vn 0.8947 0.2197 0.3888
vn -0.0926 0.4574 -0.8844
vn -0.4223 0.5742 -0.7014
vn -0.3900 0.6742 0.6272
vn 0.2258 0.8072 0.5454
vn 0.8215 0.5592 -0.1114
vn 0.4804 0.8486 0.2216
vn 0.6033 0.7741 0.1915
vn 0.4529 0.4912 -0.7440
vn -0.3722 0.8824 -0.2877
vn -0.8716 0.4088 0.2705
vn -0.3936 0.6936 -0.6033
vn -0.0908 0.6055 0.7907
vn 0.4177 0.8714 -0.2573
vn 0.4038 0.8877 -0.2212
vn -0.1374 0.8474 -0.5128
vn -0.4226 0.9040 0.0641
vn -0.2511 0.8257 0.5052
vn -0.3667 0.9231 0.1155
vn 0.4146 0.7616 0.4980
s 1
f 1/1/1 3/2/2 4/3/3
f 2/4/4 6/5/5 3/2/2
f 8/6/6 10/7/7 7/8/8
f 9/9/9 12/10/10 10/7/7
f 14/11/11 16/12/11 13/13/11
f 5/14/12 13/13/11 6/5/5
f 11/15/13 16/12/11 12/10/10
f 4/3/3 17/16/14 18/17/15
f 3/2/2 19/18/16 17/16/14
f 9/9/9 20/19/17 21/20/18
f 11/15/13 21/20/18 19/18/16
f 21/20/18 17/16/14 19/18/16
f 17/16/14 20/19/17 18/17/15
f 19/18/16 13/13/11 11/15/13
s off
f 22/21/19 23/22/19 24/23/19
f 22/21/20 24/23/20 25/24/20
f 22/21/21 25/24/21 26/25/21
f 22/21/22 26/25/22 27/26/22
f 22/21/23 27/26/23 23/22/23
f 23/22/24 28/27/24 29/28/24
f 24/23/25 29/28/25 30/29/25
f 25/24/26 30/29/26 31/30/26
f 26/25/27 31/30/27 32/31/27
f 27/26/28 32/31/28 28/27/28
f 29/28/29 24/23/29 23/22/29
f 30/29/30 25/24/30 24/23/30
f 31/30/31 26/25/31 25/24/31
f 32/31/32 27/26/32 26/25/32
f 28/27/33 23/22/33 27/26/33
f 33/32/34 34/33/34 35/34/34
f 33/32/35 35/34/35 36/35/35
f 33/32/36 36/35/36 37/36/36
f 33/32/37 37/36/37 38/37/37
f 34/33/38 38/37/38 39/38/38
f 38/37/39 34/33/39 33/32/39
f 39/38/40 35/34/40 34/33/40
f 40/39/41 41/40/41 42/41/41
f 40/39/42 42/41/42 43/42/42
f 40/39/43 43/42/43 44/43/43
f 40/39/44 44/43/44 45/44/44
f 41/40/45 45/44/45 46/45/45
f 45/44/46 41/40/46 40/39/46
f 46/45/47 42/41/47 41/40/47
f 47/46/48 48/47/48 49/48/48
f 47/46/49 49/48/49 50/49/49
f 47/46/50 50/49/50 51/50/50
f 47/46/51 51/50/51 52/51/51
f 47/46/52 52/51/52 48/47/52
f 48/47/53 53/52/53 54/53/53
f 49/48/54 54/53/54 55/54/54
f 50/49/55 55/54/55 56/55/55
f 51/50/56 56/55/56 57/56/56
f 52/51/57 57/56/57 53/52/57
f 54/53/58 49/48/58 48/47/58
f 55/54/59 50/49/59 49/48/59
f 56/55/60 51/50/60 50/49/60
f 57/56/61 52/51/61 51/50/61
f 53/52/62 48/47/62 52/51/62
f 58/57/63 59/58/63 60/59/63
f 58/57/64 60/59/64 61/60/64
f 58/57/65 61/60/65 62/61/65
f 58/57/66 62/61/66 63/62/66
f 59/58/67 63/62/67 64/63/67
f 63/62/68 59/58/68 58/57/68
f 64/63/69 60/59/69 59/58/69
f 65/64/70 66/65/70 67/66/70
f 65/64/71 67/66/71 68/67/71
f 65/64/72 68/67/72 69/68/72
f 65/64/73 69/68/73 70/69/73
f 66/65/74 70/69/74 71/70/74
f 70/69/75 66/65/75 65/64/75
f 71/70/76 67/66/76 66/65/76
s 1
f 1/1/1 2/4/4 3/2/2
f 2/4/4 5/14/12 6/5/5
f 8/6/6 9/9/9 10/7/7
f 9/9/9 11/15/13 12/10/10
f 14/11/11 15/71/11 16/12/11
f 5/14/12 14/11/11 13/13/11
f 11/15/13 13/13/11 16/12/11
f 4/3/3 3/2/2 17/16/14
f 3/2/2 6/5/5 19/18/16
f 9/9/9 8/6/6 20/19/17
f 11/15/13 9/9/9 21/20/18
f 17/16/14 21/20/18 20/19/17
f 19/18/16 6/5/5 13/13/11
